<svg xmlns="http://www.w3.org/2000/svg" width="38.152" height="35.638" viewBox="0 0 38.152 35.638">
  <g id="_7465418801582634791" data-name="7465418801582634791" transform="translate(0 0)">
    <g id="Group_6" data-name="Group 6" transform="translate(0 0)">
      <rect id="Rectangle_10" data-name="Rectangle 10" width="8.169" height="24.533" transform="translate(0.47 11.105)" fill="#fff"/>
      <path id="Path_14" data-name="Path 14" d="M173.9,142.141a8.792,8.792,0,0,0-6.808-2.81,9.812,9.812,0,0,0-2.835.384,6.432,6.432,0,0,0-2.154,1.077,9.224,9.224,0,0,0-2.364,2.6V139.9H151.6l.025,1.188q.025,1.189.025,7.328t-.05,16.017h8.145v-13.69a5.978,5.978,0,0,1,.272-2.005,5.258,5.258,0,0,1,1.572-2.116,4.008,4.008,0,0,1,2.612-.854,3.522,3.522,0,0,1,3.132,1.473,7.163,7.163,0,0,1,1,4.072v13.12h8.145v-14.06Q176.476,144.95,173.9,142.141Z" transform="translate(-138.325 -128.795)" fill="#fff"/>
      <path id="Path_15" data-name="Path 15" d="M4.6,9.708a4.661,4.661,0,0,0-3.33,1.2A3.986,3.986,0,0,0,0,13.941a4.057,4.057,0,0,0,1.238,3.02,4.468,4.468,0,0,0,3.268,1.213h.05a4.664,4.664,0,0,0,3.355-1.213,3.919,3.919,0,0,0,1.25-3.02A4.129,4.129,0,0,0,7.9,10.909,4.527,4.527,0,0,0,4.6,9.708Z" transform="translate(0 -9.708)" fill="#fff"/>
    </g>
  </g>
</svg>
