<svg id="_9741883171561032669" data-name="9741883171561032669" xmlns="http://www.w3.org/2000/svg" width="36.418" height="36.418" viewBox="0 0 36.418 36.418">
  <path id="Path_16" data-name="Path 16" d="M25.037,0H11.38A11.382,11.382,0,0,0,0,11.38V25.037a11.382,11.382,0,0,0,11.38,11.38H25.037a11.382,11.382,0,0,0,11.38-11.38V11.38A11.382,11.382,0,0,0,25.037,0ZM33,25.037A7.975,7.975,0,0,1,25.037,33H11.38a7.975,7.975,0,0,1-7.966-7.966V11.38A7.975,7.975,0,0,1,11.38,3.414H25.037A7.975,7.975,0,0,1,33,11.38Z" fill="#fff"/>
  <path id="Path_17" data-name="Path 17" d="M138.232,128a10.232,10.232,0,1,0,10.232,10.232A10.232,10.232,0,0,0,138.232,128Zm0,16.626a6.395,6.395,0,1,1,6.395-6.395A6.4,6.4,0,0,1,138.232,144.626Z" transform="translate(-120.023 -120.023)" fill="#fff"/>
  <circle id="Ellipse_1" data-name="Ellipse 1" cx="1.479" cy="1.479" r="1.479" transform="translate(26.364 7.096)" fill="#fff"/>
</svg>
