<svg xmlns="http://www.w3.org/2000/svg" xmlns:xlink="http://www.w3.org/1999/xlink" width="171.74" height="40" viewBox="0 0 171.74 40">
  <defs>
    <linearGradient id="linear-gradient" x1="0.5" x2="0.5" y2="1" gradientUnits="objectBoundingBox">
      <stop offset="0" stop-color="#4badec"/>
      <stop offset="1" stop-color="#615edc"/>
    </linearGradient>
    <linearGradient id="linear-gradient-2" y1="0.5" x2="1" y2="0.5" gradientUnits="objectBoundingBox">
      <stop offset="0" stop-color="#21bde4"/>
      <stop offset="1" stop-color="#b447c5"/>
    </linearGradient>
  </defs>
  <g id="Group_1" data-name="Group 1" transform="translate(-503 560)">
    <g id="logoipsum-logo-54" transform="translate(502.316 -560.138)">
      <path id="Path_10" data-name="Path 10" d="M20.684,40.138a20,20,0,1,0-20-20A20,20,0,0,0,20.684,40.138ZM26.923,9.455c.3-1.079-.743-1.717-1.7-1.036L11.877,17.928c-1.037.739-.874,2.21.245,2.21h3.515v-.027h6.85L16.905,22.08l-2.46,8.741c-.3,1.079.743,1.717,1.7,1.036l13.347-9.508c1.037-.739.874-2.21-.245-2.21h-5.33Z" fill-rule="evenodd" fill="url(#linear-gradient)"/>
    </g>
    <path id="Path_11" data-name="Path 11" d="M4.66-2.64H9.14V0H1.24V-14.04H4.66ZM15.86.16a6.16,6.16,0,0,1-2.95-.7,5.126,5.126,0,0,1-2.06-2,5.976,5.976,0,0,1-.75-3.04,5.928,5.928,0,0,1,.76-3.03,5.157,5.157,0,0,1,2.08-2.01,6.219,6.219,0,0,1,2.96-.7,6.219,6.219,0,0,1,2.96.7,5.157,5.157,0,0,1,2.08,2.01,5.928,5.928,0,0,1,.76,3.03,5.868,5.868,0,0,1-.77,3.03,5.207,5.207,0,0,1-2.1,2.01A6.278,6.278,0,0,1,15.86.16Zm0-2.96a2.228,2.228,0,0,0,1.67-.72,2.86,2.86,0,0,0,.69-2.06,2.914,2.914,0,0,0-.67-2.06,2.165,2.165,0,0,0-1.65-.72,2.17,2.17,0,0,0-1.66.71,2.935,2.935,0,0,0-.66,2.07,2.971,2.971,0,0,0,.65,2.06A2.1,2.1,0,0,0,15.86-2.8Zm11.9-8.52a4.3,4.3,0,0,1,2.07.48A3.536,3.536,0,0,1,31.2-9.58v-1.58h3.42V-.02a6.277,6.277,0,0,1-.61,2.79,4.649,4.649,0,0,1-1.86,1.99,6.017,6.017,0,0,1-3.11.74,6.468,6.468,0,0,1-4.02-1.17,4.416,4.416,0,0,1-1.76-3.17h3.38a1.618,1.618,0,0,0,.76,1.01,2.77,2.77,0,0,0,1.48.37,2.326,2.326,0,0,0,1.69-.61A2.616,2.616,0,0,0,31.2-.02V-1.6A3.793,3.793,0,0,1,29.82-.33a4.166,4.166,0,0,1-2.06.49,4.572,4.572,0,0,1-2.5-.71,4.906,4.906,0,0,1-1.77-2.02,6.733,6.733,0,0,1-.65-3.03,6.67,6.67,0,0,1,.65-3.02,4.848,4.848,0,0,1,1.77-2A4.621,4.621,0,0,1,27.76-11.32ZM31.2-5.58a2.8,2.8,0,0,0-.71-2.02,2.307,2.307,0,0,0-1.73-.74,2.322,2.322,0,0,0-1.73.73,2.761,2.761,0,0,0-.71,2.01,2.832,2.832,0,0,0,.71,2.03,2.292,2.292,0,0,0,1.73.75,2.307,2.307,0,0,0,1.73-.74A2.8,2.8,0,0,0,31.2-5.58ZM42.18.16a6.16,6.16,0,0,1-2.95-.7,5.126,5.126,0,0,1-2.06-2,5.976,5.976,0,0,1-.75-3.04,5.928,5.928,0,0,1,.76-3.03,5.157,5.157,0,0,1,2.08-2.01,6.219,6.219,0,0,1,2.96-.7,6.219,6.219,0,0,1,2.96.7,5.157,5.157,0,0,1,2.08,2.01,5.928,5.928,0,0,1,.76,3.03,5.868,5.868,0,0,1-.77,3.03,5.207,5.207,0,0,1-2.1,2.01A6.278,6.278,0,0,1,42.18.16Zm0-2.96a2.228,2.228,0,0,0,1.67-.72,2.86,2.86,0,0,0,.69-2.06,2.914,2.914,0,0,0-.67-2.06,2.165,2.165,0,0,0-1.65-.72,2.17,2.17,0,0,0-1.66.71,2.935,2.935,0,0,0-.66,2.07,2.971,2.971,0,0,0,.65,2.06A2.1,2.1,0,0,0,42.18-2.8Zm9.38-9.52a2.073,2.073,0,0,1-1.47-.53,1.717,1.717,0,0,1-.57-1.31,1.74,1.74,0,0,1,.57-1.33,2.073,2.073,0,0,1,1.47-.53,2.046,2.046,0,0,1,1.45.53,1.74,1.74,0,0,1,.57,1.33,1.717,1.717,0,0,1-.57,1.31A2.046,2.046,0,0,1,51.56-12.32Zm1.7,1.16V0H49.84V-11.16Zm5.9,1.58a3.713,3.713,0,0,1,1.38-1.26,4.236,4.236,0,0,1,2.06-.48,4.621,4.621,0,0,1,2.5.7,4.848,4.848,0,0,1,1.77,2,6.67,6.67,0,0,1,.65,3.02,6.733,6.733,0,0,1-.65,3.03A4.906,4.906,0,0,1,65.1-.55a4.572,4.572,0,0,1-2.5.71,4.251,4.251,0,0,1-2.05-.48,3.758,3.758,0,0,1-1.39-1.24V5.32H55.74V-11.16h3.42ZM64.04-5.6a2.761,2.761,0,0,0-.71-2.01,2.345,2.345,0,0,0-1.75-.73,2.307,2.307,0,0,0-1.73.74,2.8,2.8,0,0,0-.71,2.02,2.8,2.8,0,0,0,.71,2.02,2.307,2.307,0,0,0,1.73.74,2.324,2.324,0,0,0,1.74-.75A2.809,2.809,0,0,0,64.04-5.6ZM73.86.16a6.414,6.414,0,0,1-2.6-.5,4.44,4.44,0,0,1-1.8-1.37,3.6,3.6,0,0,1-.74-1.95H72.1a1.3,1.3,0,0,0,.54.94,1.911,1.911,0,0,0,1.18.36,1.684,1.684,0,0,0,.99-.25.766.766,0,0,0,.35-.65.75.75,0,0,0-.5-.71,10.1,10.1,0,0,0-1.62-.51,15.209,15.209,0,0,1-2-.59,3.456,3.456,0,0,1-1.38-.98,2.671,2.671,0,0,1-.58-1.81,3.073,3.073,0,0,1,.53-1.75,3.568,3.568,0,0,1,1.56-1.25,5.973,5.973,0,0,1,2.45-.46,4.911,4.911,0,0,1,3.31,1.04,4.047,4.047,0,0,1,1.39,2.76H75.16a1.362,1.362,0,0,0-.51-.92,1.769,1.769,0,0,0-1.13-.34,1.562,1.562,0,0,0-.92.23.734.734,0,0,0-.32.63.769.769,0,0,0,.51.72,8.169,8.169,0,0,0,1.59.48,17.394,17.394,0,0,1,2.02.63,3.484,3.484,0,0,1,1.37,1,2.83,2.83,0,0,1,.61,1.85,2.936,2.936,0,0,1-.55,1.75A3.638,3.638,0,0,1,76.25-.28,6.043,6.043,0,0,1,73.86.16ZM91.5-11.16V0H88.08V-1.52A3.753,3.753,0,0,1,86.67-.33,4.3,4.3,0,0,1,84.7.12a4.413,4.413,0,0,1-2.26-.57A3.843,3.843,0,0,1,80.92-2.1a5.615,5.615,0,0,1-.54-2.54v-6.52h3.4V-5.1a2.449,2.449,0,0,0,.58,1.74,2.034,2.034,0,0,0,1.56.62,2.059,2.059,0,0,0,1.58-.62,2.449,2.449,0,0,0,.58-1.74v-6.06Zm16.7-.12a4.414,4.414,0,0,1,3.31,1.26,4.8,4.8,0,0,1,1.23,3.5V0h-3.4V-6.06a2.306,2.306,0,0,0-.57-1.67,2.081,2.081,0,0,0-1.57-.59,2.081,2.081,0,0,0-1.57.59,2.306,2.306,0,0,0-.57,1.67V0h-3.4V-6.06a2.306,2.306,0,0,0-.57-1.67,2.081,2.081,0,0,0-1.57-.59,2.081,2.081,0,0,0-1.57.59,2.306,2.306,0,0,0-.57,1.67V0H93.96V-11.16h3.42v1.4a3.661,3.661,0,0,1,1.36-1.11,4.276,4.276,0,0,1,1.9-.41,4.622,4.622,0,0,1,2.25.54,3.871,3.871,0,0,1,1.55,1.54,4.5,4.5,0,0,1,1.58-1.5A4.269,4.269,0,0,1,108.2-11.28Z" transform="translate(562 -533.98)" fill="url(#linear-gradient-2)"/>
  </g>
</svg>
